<?xml version="1.0" encoding="UTF-8"?>
<svg width="752pt" height="752pt" version="1.1" viewBox="0 0 752 752" xmlns="http://www.w3.org/2000/svg">
 <path d="m606.15 532.05c-18.094-38.305-57.109-75.973-122.79-118.54-34.469-22.309-72.645-38.281-112.73-47.168l-71.387-15.965c-28.277-23.57-53.07-22.176-68.949-16.801-10.16 3.5039-19.41 9.2383-27.066 16.777-6.8438 1.207-36.793 6.5938-47.953 10.184-4.6836 1.5664-8.4492 5.1016-10.309 9.6758-3.3047 7.418-3.0234 17.969 0.69531 26.25 8.7227 19.426 35.332 59.605 73.785 73.188 9.9727 6.0977 20.156 13.035 30.93 20.375l1.8281 1.2461c4.793 11.59 10.488 21.379 16.965 29.082-4.9766 9.4688-20.418 39.277-25.273 53.484-10.203 3.1523-48.332 15.27-62.559 24.656v-0.003906c-2.2188 1.4609-3.2188 4.207-2.4531 6.75 0.76172 2.5469 3.1055 4.2891 5.7656 4.2852h96.516c1.9336 0 3.7969-0.71094 5.2383-1.9961 11.688-10.441 44.242-40.105 61.426-61.477 20.207 8.5703 41.078 15.48 62.406 20.656-33.305 6.2891-80.879 21.5-97.961 31.645h0.003906c-2.3242 1.3867-3.4336 4.1562-2.7109 6.7617 0.71875 2.6094 3.0938 4.4141 5.7969 4.4102h112.84c1.0273 0 2.0469-0.19922 3-0.59375l13.844-5.7109c4.6914 0.31641 27.637 1.8242 50.094 1.7227 40.727-0.11719 48.559-5.043 50.859-9.8477 1.9375-4.0469 1.6992-8.8711-0.73438-14.523 12.164-0.20703 36.836-2.043 51.797-12.836l0.003906 0.003907c5.4414-3.9531 9.332-9.6836 10.988-16.203 1.6602-6.5195 0.98438-13.41-1.9062-19.484zm-379.8-170.74c3.7227 0 7.082 2.2461 8.5078 5.6875 1.4297 3.4414 0.64062 7.4062-1.9961 10.039-2.6328 2.6328-6.5977 3.4219-10.039 1.9961-3.4414-1.4258-5.6836-4.7852-5.6836-8.5117 0-5.0859 4.1211-9.2109 9.2109-9.2109zm31.391 123.65-2.6719-1.8203c-11-7.4922-21.387-14.574-31.66-20.836l0.003906 0.003906c-0.25391-0.15234-0.52344-0.28125-0.80078-0.37891-24.418-8.4805-45.074-29.98-58.168-49.27 19.207 10.953 36.098 16.816 51.352 22.105 24.621 8.5391 45.91 15.934 68.258 41.949 3.9609 11.656 9.3125 24.859 16.504 35.926-15.637-9.2734-29.742-18.777-42.539-27.492-0.089843-0.0625-0.17969-0.125-0.27734-0.18359zm11.289 95.344c-8.3125 1.9141-36.605 8.8906-50.688 18.18v0.003907c-1 0.66016-1.7812 1.6016-2.2383 2.7109h-22.469c17.969-8.6719 49.742-18.5 53.859-19.762 1.875-0.57422 3.3516-2.0312 3.9492-3.8984 3.3281-10.453 15.227-34.543 25.25-53.602 1.5-2.8242 1.125-6.2734-0.94531-8.707-3.8164-4.582-7.1562-9.5352-9.9727-14.793 11.465 7.6602 23.902 15.66 37.504 23.422-10.508 15.266-29.094 43.133-34.25 56.449zm88.016 17.945c-1.1914 0.65625-2.125 1.6953-2.6523 2.9492h-29.391c27.895-12.648 88.98-29.863 110.79-29.02 0.070313 0 0.13281-0.011719 0.19922-0.011719 0.76562 0.14062 1.5234 0.28516 2.2891 0.42188-31.09 6.8242-66.523 17.469-81.238 25.66zm105.83-30.359c-39.855-5.0508-75.859-14.457-109.88-28.695 2-2.7422 3.6719-5.7109 4.9805-8.8438 1.6328-4.3555 1.0156-13.73-1.8086-27.98 20.828 9.4609 27.695 10.129 39.191 11.234 1.4414 0.14062 2.9805 0.28906 4.6406 0.46094-0.26172 0.86328-0.45312 1.7422-0.57812 2.6328-0.82422 5.9805 1.625 11.629 6.7266 15.504 17.227 13.078 39.555 25.688 61.219 35.02-1.457 0.20313-2.957 0.42578-4.4922 0.66406z"/>
</svg>
